<svg width="291" height="165" viewBox="0 0 291 165" fill="none" xmlns="http://www.w3.org/2000/svg">
<path fill-rule="evenodd" clip-rule="evenodd" d="M175.02 18.9669C159.647 29.1593 146.993 43.9034 140.092 54.3437C139.863 54.6915 139.581 54.9849 139.265 55.2205C140.377 56.5384 141.5 57.8791 142.638 59.2414C148.096 49.5033 158.29 36.0866 171.965 26.1317C186.122 15.8258 204.329 9.02659 224.882 14.4077C249.693 20.9035 267.803 35.0675 275.514 54.7471C283.225 74.4239 280.211 98.7724 264.556 124.968L264.407 125.218L264.218 125.44C244.223 148.96 217.56 151.906 193.082 144.214C168.779 136.576 149.974 117.625 134.474 99.1253C122.114 80.5219 101.137 59.0501 81.9654 49.2027C72.3937 44.2862 63.4744 42.4675 55.8736 44.6244C48.4187 46.7399 41.3512 52.9408 35.9517 66.0558C25.0064 92.6411 29.6316 109.057 36.8835 118.95C44.3562 129.145 55.1605 133.158 57.4533 133.744C57.8908 133.855 58.345 134.013 58.699 134.136C58.7758 134.163 58.8514 134.19 58.9267 134.216C59.2409 134.326 59.5476 134.434 59.8942 134.547C60.7238 134.817 61.698 135.086 62.8714 135.258C65.1849 135.596 68.5115 135.587 73.1365 134.115C82.5062 131.133 97.2545 122.126 119.325 97.7509C118.681 97.0886 118.041 96.4299 117.404 95.7753C113.979 101.81 107.563 108.503 100.004 114.294C92.0687 120.373 82.5124 125.735 73.1042 128.398C63.7602 131.043 53.9329 131.181 46.1768 125.807C38.3688 120.397 33.7022 110.134 33.0359 94.3985C32.3735 78.754 35.3414 67.9242 40.8996 60.8891C46.5368 53.7541 54.3797 51.0919 62.1178 50.8424C69.7817 50.5953 77.5581 52.6863 83.7187 55.2829C86.818 56.5892 89.5848 58.0554 91.8014 59.4893C93.9194 60.8594 95.8467 62.3974 96.949 63.9347C97.3765 64.5309 98.6184 65.9643 100.686 68.2109C102.691 70.389 105.327 73.177 108.405 76.3917C114.557 82.8194 122.424 90.9014 130.432 99.1253L131.435 100.155C147.047 116.188 163.124 132.698 167.488 137.983C169.177 140.027 173.955 143.669 181.168 147.033C188.263 150.342 197.358 153.213 207.415 153.988C227.28 155.518 251.238 148.922 271.405 120.328C287.354 89.8734 286.662 67.3489 277.136 50.2368C267.431 32.8046 248.109 20.123 225.021 10.5791C207.89 3.49801 190.408 8.76473 175.02 18.9669ZM112.468 90.6898C109.183 87.3008 106.096 84.103 103.348 81.2321C100.26 78.0061 97.5871 75.1798 95.536 72.9516C93.548 70.7918 91.9866 69.0267 91.2603 68.0136C90.9478 67.5778 89.9344 66.6185 87.9994 65.3668C86.163 64.1788 83.7645 62.8986 80.9999 61.7333C75.4328 59.3869 68.687 57.6342 62.3434 57.8388C56.0739 58.0409 50.4239 60.1257 46.3922 65.2287C42.2814 70.4317 39.4042 79.331 40.0296 94.1023C40.6513 108.783 44.9207 116.421 50.1633 120.053C55.4577 123.721 62.7956 124.041 71.1979 121.663C79.5361 119.303 88.3072 114.437 95.7471 108.738C103.232 103.004 109.01 96.7031 111.649 91.7139C111.862 91.3119 112.142 90.9683 112.468 90.6898ZM124.217 102.777C101.974 127.278 86.3081 137.268 75.2596 140.785C69.6503 142.571 65.2523 142.68 61.8592 142.184C60.1794 141.939 58.8049 141.553 57.7289 141.203C57.2973 141.063 56.8994 140.923 56.5814 140.812C56.514 140.788 56.4502 140.766 56.3904 140.745C56.0054 140.61 55.8238 140.552 55.721 140.526C52.4178 139.682 39.9634 134.992 31.2378 123.089C22.2914 110.884 17.7787 91.8095 29.4788 63.3909C35.4019 49.0041 43.802 40.7736 53.9626 37.8903C63.9772 35.0484 74.8212 37.6637 85.1637 42.9761C105.821 53.5865 126.441 75.9459 139.139 95.058C151.26 113.3 172.52 130.415 195.181 137.536C217.587 144.577 240.973 141.8 258.697 121.126C273.469 96.2858 275.668 74.3261 268.997 57.301C262.304 40.2213 246.355 27.2654 223.109 21.1794C205.217 16.4951 189.151 22.2789 176.085 31.791C162.974 41.3357 153.207 54.4285 148.281 63.5034C148.009 64.0039 147.633 64.4116 147.194 64.7141C148.111 65.8158 149.038 66.9294 149.976 68.0542C155.5 60.2921 164.664 49.3532 175.352 40.202C186.451 30.6982 199.908 22.4988 213.001 22.8235C244.374 23.6017 272.519 54.0627 265.887 90.2608C259.18 126.865 221.513 141.179 191.837 132.309C176.843 127.827 169.965 124.179 163.684 117.516C160.933 114.598 158.315 111.12 155.181 106.957C154.902 106.586 154.619 106.21 154.331 105.829C150.774 101.11 146.377 95.3436 140.118 88.0533C136.913 84.3189 133.691 80.3308 130.444 76.2955C130.196 75.9876 129.948 75.6795 129.7 75.3711C126.686 71.624 123.645 67.8439 120.524 64.1314C113.76 56.0843 106.747 48.5099 99.1655 42.6007C91.5988 36.7031 83.5973 32.5688 74.8566 31.2226C66.1991 29.8893 56.5093 31.2433 45.4124 36.8107C22.6418 51.0807 15.1744 75.466 18.0781 97.7537C21.0065 120.231 34.2516 139.346 51.5462 143.9C65.367 145.454 76.4197 145.814 87.825 141.371C99.3308 136.889 111.653 127.325 127.38 107.96C127.676 107.595 128.031 107.305 128.42 107.093C127.572 106.222 126.722 105.349 125.873 104.477L125.417 104.009C125.017 103.598 124.617 103.187 124.217 102.777ZM133.123 111.925C133.033 112.08 132.93 112.23 132.813 112.373C116.741 132.164 103.493 142.78 90.366 147.894C77.2062 153.02 64.6273 152.425 50.5143 150.828L50.2749 150.801L50.0415 150.742C28.8278 145.323 14.288 122.845 11.1368 98.658C7.95369 74.226 16.1548 46.7984 41.8435 30.7866L41.9776 30.703L42.1186 30.6318C54.398 24.4382 65.6007 22.7146 75.9221 24.3042C86.1971 25.8867 95.2891 30.7043 103.469 37.0796C111.633 43.4432 119.02 51.4625 125.883 59.6273C129.055 63.4008 132.142 67.2385 135.147 70.9751C135.398 71.2865 135.648 71.5972 135.897 71.9072C139.15 75.9492 142.306 79.8552 145.43 83.4938C151.83 90.9497 156.33 96.8515 159.921 101.615C160.185 101.965 160.443 102.308 160.696 102.644C163.924 106.929 166.306 110.092 168.778 112.714C173.82 118.064 179.317 121.26 193.842 125.602C220.642 133.613 253.241 120.437 259.001 88.9992C264.836 57.1554 240.028 30.496 212.827 29.8214C202.49 29.565 190.765 36.2194 179.905 45.5191C169.196 54.6888 160.022 65.827 154.888 73.24C154.802 73.3647 154.709 73.482 154.61 73.5919C155.621 74.799 156.61 75.9796 157.58 77.1339C164.734 66.9398 176.086 53.7487 188.759 44.863C202.225 35.4209 218.615 29.9702 232.725 40.9667C248.673 53.3968 256.444 69.7422 255.584 84.8433C254.715 100.087 245.068 113.403 227.661 119.379C219.29 122.253 211.944 123.475 205.08 122.89C198.173 122.301 192.002 119.903 185.968 115.915C174.627 108.419 163.377 94.9761 148.149 76.78C147.536 76.048 146.917 75.3083 146.292 74.5609C144.478 72.3953 142.722 70.2859 141.014 68.2344C127.137 51.5673 116.44 38.7189 104.179 30.589C90.8003 21.7174 75.3779 18.41 51.3162 23.298C32.9708 27.0247 21.7557 39.8389 15.1414 54.8984C8.50131 70.0165 6.70519 87.0106 7.11183 97.9809C7.76619 112.808 18.2129 145.276 54.7002 155.761C72.6241 160.912 89.5227 155.598 103.636 146.469C117.775 137.322 128.753 124.559 134.474 115.668C134.785 115.185 135.195 114.804 135.66 114.535C134.821 113.671 133.974 112.801 133.123 111.925ZM140.391 119.409C150.656 130.002 159.208 138.949 162.091 142.44C164.741 145.648 170.599 149.827 178.209 153.377C185.936 156.981 195.85 160.117 206.877 160.967C229.137 162.682 255.585 155.03 277.263 124.168L277.392 123.984L277.497 123.784C294.297 91.8137 294.276 66.6355 283.252 46.8319C272.385 27.311 251.258 13.8501 227.695 4.10996C207.503 -4.2363 187.482 2.30607 171.152 13.1326C155.12 23.7619 142.038 38.8824 134.676 49.8481C125.733 39.5338 117.328 30.9084 108.048 24.755C92.8099 14.6508 75.4041 11.2617 49.9227 16.4381C28.6337 20.7628 15.9233 35.7109 8.73231 52.0834C1.56944 68.3919 -0.320657 86.4928 0.117107 98.253L0.117536 98.2645L0.11804 98.276C0.847302 114.917 12.3825 150.883 52.7669 162.489C73.2835 168.384 92.2881 162.146 107.438 152.346C122.56 142.564 134.205 129.022 140.361 119.457C140.371 119.441 140.381 119.425 140.391 119.409ZM162.259 82.6762C173.205 95.5541 181.574 104.62 189.828 110.075C195.056 113.531 200.122 115.442 205.675 115.915C211.271 116.392 217.607 115.43 225.389 112.758C240.287 107.644 247.899 96.6626 248.595 84.4451C249.299 72.0849 242.942 57.8046 228.421 46.4879C218.156 38.4869 205.596 41.6062 192.777 50.5945C180.355 59.3049 169.028 72.7174 162.259 82.6762Z" fill="url(#paint0_linear_81_102)"/>
<defs>
<linearGradient id="paint0_linear_81_102" x1="7.52291" y1="65.9265" x2="242.229" y2="125.875" gradientUnits="userSpaceOnUse">
<stop stop-color="#8FC0A9"/>
<stop offset="0.8" stop-color="#DF928E"/>
</linearGradient>
</defs>
</svg>
