<svg width="103" height="72" viewBox="0 0 103 72" fill="none" xmlns="http://www.w3.org/2000/svg">
<path d="M41.2 51.4286L67.9285 36L41.2 20.5714V51.4286ZM100.734 11.16C101.403 13.5771 101.867 16.8171 102.176 20.9314C102.536 25.0457 102.691 28.5943 102.691 31.68L103 36C103 47.2629 102.176 55.5429 100.734 60.84C99.4465 65.4686 96.4595 68.4514 91.8245 69.7371C89.404 70.4057 84.975 70.8686 78.177 71.1771C71.482 71.5371 65.3535 71.6914 59.6885 71.6914L51.5 72C29.9215 72 16.48 71.1771 11.1755 69.7371C6.5405 68.4514 3.5535 65.4686 2.266 60.84C1.5965 58.4229 1.133 55.1829 0.824 51.0686C0.4635 46.9543 0.309 43.4057 0.309 40.32L0 36C0 24.7371 0.824 16.4571 2.266 11.16C3.5535 6.53143 6.5405 3.54857 11.1755 2.26286C13.596 1.59429 18.025 1.13143 24.823 0.822856C31.518 0.462856 37.6465 0.308571 43.3115 0.308571L51.5 0C73.0785 0 86.52 0.822857 91.8245 2.26286C96.4595 3.54857 99.4465 6.53143 100.734 11.16Z" fill="black"/>
</svg>
